{"extensionsUsed" : ["KHR_materials_clearcoat", "KHR_materials_specular", "KHR_materials_ior", "KHR_materials_transmission"], "accessors" : [{"bufferView" : 0, "byteOffset" : 0, "componentType" : 5123, "count" : 6, "type" : "SCALAR", "max" : [4], "min" : [0]}, {"bufferView" : 1, "byteOffset" : 0, "componentType" : 5126, "count" : 5, "type" : "VEC3", "max" : [1, 0, 1], "min" : [-1, 0, -1], "name" : "POSITION"}, {"bufferView" : 1, "byteOffset" : 12, "componentType" : 5126, "count" : 5, "type" : "VEC2", "max" : [1, 1], "min" : [0, 0], "name" : "TEXCOORD_0"}, {"bufferView" : 1, "byteOffset" : 20, "componentType" : 5126, "count" : 5, "type" : "VEC3", "max" : [0, 1.0000044107437134, -0], "min" : [0, 1.0000044107437134, -0], "name" : "NORMAL"}, {"bufferView" : 0, "byteOffset" : 12, "componentType" : 5123, "count" : 36, "type" : "SCALAR", "max" : [29], "min" : [0]}, {"bufferView" : 2, "byteOffset" : 0, "componentType" : 5126, "count" : 30, "type" : "VEC3", "max" : [1, 1, 1], "min" : [-1, -1, -1], "name" : "POSITION"}, {"bufferView" : 2, "byteOffset" : 12, "componentType" : 5126, "count" : 30, "type" : "VEC2", "max" : [0.875, 1], "min" : [0.125, 0], "name" : "TEXCOORD_0"}, {"bufferView" : 2, "byteOffset" : 20, "componentType" : 5126, "count" : 30, "type" : "VEC3", "max" : [0.57735276222229, 0.57735276222229, 0.57735276222229], "min" : [-0.57735276222229, -0.57735276222229, -0.57735276222229], "name" : "NORMAL"}, {"bufferView" : 0, "byteOffset" : 84, "componentType" : 5123, "count" : 36, "type" : "SCALAR", "max" : [29], "min" : [0]}, {"bufferView" : 3, "byteOffset" : 0, "componentType" : 5126, "count" : 30, "type" : "VEC3", "max" : [1, 1, 1], "min" : [-1, -1, -1], "name" : "POSITION"}, {"bufferView" : 3, "byteOffset" : 12, "componentType" : 5126, "count" : 30, "type" : "VEC2", "max" : [0.875, 1], "min" : [0.125, 0], "name" : "TEXCOORD_0"}, {"bufferView" : 3, "byteOffset" : 20, "componentType" : 5126, "count" : 30, "type" : "VEC3", "max" : [0.57735276222229, 0.57735276222229, 0.57735276222229], "min" : [-0.57735276222229, -0.57735276222229, -0.57735276222229], "name" : "NORMAL"}, {"bufferView" : 0, "byteOffset" : 156, "componentType" : 5123, "count" : 240, "type" : "SCALAR", "max" : [239], "min" : [0]}, {"bufferView" : 4, "byteOffset" : 0, "componentType" : 5126, "count" : 240, "type" : "VEC3", "max" : [0.9510578513145447, 1, 0.9999999403953552], "min" : [-0.9510578513145447, -1, -0.9999999403953552], "name" : "POSITION"}, {"bufferView" : 4, "byteOffset" : 12, "componentType" : 5126, "count" : 240, "type" : "VEC2", "max" : [1, 1], "min" : [0, 0.5276179909706116], "name" : "TEXCOORD_0"}, {"bufferView" : 4, "byteOffset" : 20, "componentType" : 5126, "count" : 240, "type" : "VEC3", "max" : [0.9920855760574341, 0.9435396790504456, 0.9435200095176697], "min" : [-0.9920855760574341, -0.9435396790504456, -0.9435200095176697], "name" : "NORMAL"}, {"bufferView" : 0, "byteOffset" : 636, "componentType" : 5123, "count" : 2904, "type" : "SCALAR", "max" : [2283], "min" : [0]}, {"bufferView" : 5, "byteOffset" : 0, "componentType" : 5126, "count" : 2284, "type" : "VEC3", "max" : [1.3671875, 0.984375, 0.8515625], "min" : [-1.3671875, -0.984375, -0.8515625], "name" : "POSITION"}, {"bufferView" : 5, "byteOffset" : 12, "componentType" : 5126, "count" : 2284, "type" : "VEC2", "max" : [0.9998559951782227, 0.9998559951782227], "min" : [0.00014400000509340316, 0.0951489806175232], "name" : "TEXCOORD_0"}, {"bufferView" : 5, "byteOffset" : 20, "componentType" : 5126, "count" : 2284, "type" : "VEC3", "max" : [0.9989492893218994, 0.9997351765632629, 0.9999958276748657], "min" : [-0.9989492893218994, -0.9862980842590332, -0.9753364324569702], "name" : "NORMAL"}, {"bufferView" : 0, "byteOffset" : 6444, "componentType" : 5123, "count" : 3456, "type" : "SCALAR", "max" : [2877], "min" : [0]}, {"bufferView" : 6, "byteOffset" : 0, "componentType" : 5126, "count" : 2878, "type" : "VEC3", "max" : [1.25, 0.25, 1.25], "min" : [-1.25, -0.25, -1.25], "name" : "POSITION"}, {"bufferView" : 6, "byteOffset" : 12, "componentType" : 5126, "count" : 2878, "type" : "VEC2", "max" : [1, 1], "min" : [8.881784197001252E-16, 0], "name" : "TEXCOORD_0"}, {"bufferView" : 6, "byteOffset" : 20, "componentType" : 5126, "count" : 2878, "type" : "VEC3", "max" : [1.0000044107437134, 0.9999464750289917, 1.0000044107437134], "min" : [-1.0000044107437134, -0.9999464750289917, -1.0000044107437134], "name" : "NORMAL"}], "asset" : {"generator" : "Aspose.3D 23.4.0", "version" : "2.0"}, "buffers" : [{"uri" : "data:application/octet-stream;base64,", "byteLength" : 227080}], "bufferViews" : [{"buffer" : 0, "byteOffset" : 0, "byteLength" : 13356, "target" : 34963}, {"buffer" : 0, "byteOffset" : 13360, "byteLength" : 192, "byteStride" : 32, "target" : 34962}, {"buffer" : 0, "byteOffset" : 13556, "byteLength" : 1152, "byteStride" : 32, "target" : 34962}, {"buffer" : 0, "byteOffset" : 14712, "byteLength" : 1152, "byteStride" : 32, "target" : 34962}, {"buffer" : 0, "byteOffset" : 15868, "byteLength" : 7680, "byteStride" : 32, "target" : 34962}, {"buffer" : 0, "byteOffset" : 23552, "byteLength" : 92928, "byteStride" : 32, "target" : 34962}, {"buffer" : 0, "byteOffset" : 116484, "byteLength" : 110592, "byteStride" : 32, "target" : 34962}], "materials" : [{"name" : "dark blue", "extensions" : {"KHR_materials_clearcoat" : {"clearcoatFactor" : 1, "clearcoatRoughnessFactor" : 0}}, "pbrMetallicRoughness" : {"baseColorFactor" : [0.8000000715255737, 0.00307737709954381, 0.25054654479026794, 1], "metallicFactor" : 0.30514705181121826, "roughnessFactor" : 0.20955881476402283}, "emissiveFactor" : [0, 0, 0], "alphaMode" : "OPAQUE", "doubleSided" : true}, {"name" : "torqoise", "extensions" : {"KHR_materials_clearcoat" : {"clearcoatFactor" : 1, "clearcoatRoughnessFactor" : 0}, "KHR_materials_specular" : {"specularColorFactor" : [2.371357614441398, 2.371357614441398, 2.371357614441398]}, "KHR_materials_ior" : {"ior" : 1.4500000476837158}}, "pbrMetallicRoughness" : {"baseColorFactor" : [0.20999042689800262, 0.8000000715255737, 0.6775774359703064, 1], "metallicFactor" : 0.8529411554336548, "roughnessFactor" : 0.9191176891326904}, "emissiveFactor" : [0, 0, 0], "alphaMode" : "OPAQUE", "doubleSided" : true}, {"name" : "red", "extensions" : {"KHR_materials_transmission" : {"transmissionFactor" : 0.125}, "KHR_materials_ior" : {"ior" : 1.4500000476837158}}, "pbrMetallicRoughness" : {"baseColorFactor" : [0.8000000715255737, 0.010319552384316921, 0, 1], "metallicFactor" : 0, "roughnessFactor" : 0.22058823704719543}, "emissiveFactor" : [0, 0, 0], "alphaMode" : "OPAQUE", "doubleSided" : true}, {"name" : "purple", "extensions" : {"KHR_materials_specular" : {"specularColorFactor" : [2.332633828806185, 0.3070308682528187, 3.0167013762715222]}, "KHR_materials_ior" : {"ior" : 1.4500000476837158}}, "pbrMetallicRoughness" : {"baseColorFactor" : [0.6185919642448425, 0.0814216211438179, 0.8000000715255737, 1], "metallicFactor" : 1, "roughnessFactor" : 0.48161762952804565}, "emissiveFactor" : [0, 0, 0], "alphaMode" : "OPAQUE", "doubleSided" : true}, {"name" : "yellow", "extensions" : {"KHR_materials_clearcoat" : {"clearcoatFactor" : 0.08455884456634521, "clearcoatRoughnessFactor" : 0.029999999329447746}, "KHR_materials_specular" : {"specularColorFactor" : [0.636430507128537, 0.636430507128537, 0.636430507128537]}, "KHR_materials_ior" : {"ior" : 1.4500000476837158}}, "pbrMetallicRoughness" : {"baseColorFactor" : [0.749507486820221, 0.8000000715255737, 0.020737309008836746, 1], "metallicFactor" : 1, "roughnessFactor" : 0}, "emissiveFactor" : [0, 0, 0], "alphaMode" : "OPAQUE", "doubleSided" : true}, {"name" : "green", "extensions" : {"KHR_materials_specular" : {"specularColorFactor" : [0.09590051254636951, 1.8544788048001792, 0.44221370576680724]}, "KHR_materials_ior" : {"ior" : 1.4500000476837158}}, "pbrMetallicRoughness" : {"baseColorFactor" : [0, 0.8000000715255737, 0.1575423628091812, 1], "metallicFactor" : 1, "roughnessFactor" : 0}, "emissiveFactor" : [0, 0, 0], "alphaMode" : "OPAQUE", "doubleSided" : true}], "meshes" : [{"primitives" : [{"attributes" : {"POSITION" : 1, "TEXCOORD_0" : 2, "NORMAL" : 3}, "indices" : 0, "material" : 0, "mode" : 4}]}, {"primitives" : [{"attributes" : {"POSITION" : 5, "TEXCOORD_0" : 6, "NORMAL" : 7}, "indices" : 4, "material" : 1, "mode" : 4}]}, {"primitives" : [{"attributes" : {"POSITION" : 9, "TEXCOORD_0" : 10, "NORMAL" : 11}, "indices" : 8, "material" : 2, "mode" : 4}]}, {"primitives" : [{"attributes" : {"POSITION" : 13, "TEXCOORD_0" : 14, "NORMAL" : 15}, "indices" : 12, "material" : 3, "mode" : 4}]}, {"primitives" : [{"attributes" : {"POSITION" : 17, "TEXCOORD_0" : 18, "NORMAL" : 19}, "indices" : 16, "material" : 4, "mode" : 4}]}, {"primitives" : [{"attributes" : {"POSITION" : 21, "TEXCOORD_0" : 22, "NORMAL" : 23}, "indices" : 20, "material" : 5, "mode" : 4}]}], "nodes" : [{"matrix" : [10, 0, 0, 0, 0, 10, 0, 0, 0, 0, 10, 0, 0, 0, 0, 1], "mesh" : 0, "name" : "Plane"}, {"matrix" : [1, 0, 0, 0, 0, 1, 0, 0, 0, 0, 1, 0, 0.012714184820652008, 1.0157464742660522, 3.0424511432647705, 1], "mesh" : 1, "name" : "Cube"}, {"matrix" : [1, 0, 0, 0, 0, 1, 0, 0, 0, 0, 1, 0, 1.5371730327606201, 1.0263270139694214, 0, 1], "mesh" : 2, "name" : "Cube.001"}, {"matrix" : [0.5, 0, 0, 0, 0, 0.5, 0, 0, 0, 0, 0.5, 0, 6.500406265258789, 0.5245438814163208, 4.711027145385742, 1], "mesh" : 3, "name" : "Icosphere"}, {"matrix" : [0.7456558165707996, 0.050777088462238495, -0.6643937744143908, 0, -0.4045888055389515, 0.8267489569242166, -0.3908888059277107, 0, 0.5294386637051236, 0.5602747963761399, 0.6370140105277464, 0, 2.6118741035461426, 0.539615273475647, 3.263324022293091, 1], "mesh" : 4, "name" : "Suzanne"}, {"matrix" : [1, 0, 0, 0, 0, 1, 0, 0, 0, 0, 1, 0, 4.6582441329956055, 0.2856787145137787, 1.2658499479293823, 1], "mesh" : 5, "name" : "Torus"}], "scene" : 0, "scenes" : [{"nodes" : [0, 1, 2, 3, 4, 5]}]}